<svg width="278" height="105" viewBox="0 0 278 105" fill="none" xmlns="http://www.w3.org/2000/svg">
<path d="M1.1998 48.6001V0.600097H15.6598L19.6198 18.7801L20.3998 40.6801H21.9598L22.6798 18.7801L26.6998 0.600097H41.0998V48.6001H32.0998V33.8401L33.8398 8.5201H32.2198L29.6998 34.4401L25.9798 48.6001H16.3198L12.6598 34.4401L10.0798 8.5201H8.5198L10.1998 33.8401V48.6001H1.1998ZM58.1009 49.2001C53.7009 49.2001 50.5009 48.2801 48.5009 46.4401C46.5409 44.5601 45.5209 41.4601 45.4409 37.1401C45.3609 33.2201 45.3209 29.0401 45.3209 24.6001C45.3209 20.1201 45.3609 15.9201 45.4409 12.0001C45.5209 7.7201 46.5409 4.6601 48.5009 2.8201C50.5009 0.940095 53.7009 9.39369e-05 58.1009 9.39369e-05C62.5009 9.39369e-05 65.6609 0.940095 67.5809 2.8201C69.5009 4.6601 70.5409 7.7201 70.7009 12.0001C70.8609 16.0001 70.9409 20.2201 70.9409 24.6601C70.9409 29.0601 70.8609 33.2201 70.7009 37.1401C70.5409 41.4601 69.5009 44.5601 67.5809 46.4401C65.6609 48.2801 62.5009 49.2001 58.1009 49.2001ZM58.1009 41.8801C60.4209 41.8801 61.6209 40.8601 61.7009 38.8201C61.7809 36.7801 61.8409 34.5401 61.8809 32.1001C61.9609 29.6601 62.0009 27.1601 62.0009 24.6001C62.0009 22.0001 61.9609 19.4801 61.8809 17.0401C61.8409 14.6001 61.7809 12.3601 61.7009 10.3201C61.6209 8.3201 60.4209 7.3201 58.1009 7.3201C55.7409 7.3201 54.5209 8.3201 54.4409 10.3201C54.3609 12.3601 54.3009 14.6001 54.2609 17.0401C54.2209 19.4801 54.2009 22.0001 54.2009 24.6001C54.2009 27.1601 54.2209 29.6601 54.2609 32.1001C54.3009 34.5401 54.3609 36.7801 54.4409 38.8201C54.5209 40.8601 55.7409 41.8801 58.1009 41.8801ZM74.5592 48.6001V0.600097H86.7392C91.2592 0.600097 94.5192 1.5601 96.5192 3.4801C98.5192 5.3601 99.5592 8.5001 99.6392 12.9001C99.7192 15.6601 99.7592 18.3001 99.7592 20.8201C99.7992 23.3001 99.7992 25.8001 99.7592 28.3201C99.7592 30.8001 99.7192 33.4401 99.6392 36.2401C99.5592 40.6401 98.5192 43.8001 96.5192 45.7201C94.5192 47.6401 91.2592 48.6001 86.7392 48.6001H74.5592ZM83.5592 40.6801H86.7392C89.2592 40.6801 90.5592 39.5601 90.6392 37.3201C90.8792 28.8001 90.8792 20.3001 90.6392 11.8201C90.5592 9.6201 89.2592 8.5201 86.7392 8.5201H83.5592V40.6801ZM103.387 48.6001V0.600097H124.147V8.5201H112.387V20.2201H123.547V28.1401H112.387V40.6801H124.147V48.6001H103.387ZM127.176 48.6001V0.600097H138.756C143.236 0.600097 146.456 1.5201 148.416 3.3601C150.416 5.1601 151.496 8.1401 151.656 12.3001C151.696 13.4201 151.716 14.4001 151.716 15.2401C151.756 16.0801 151.756 16.9201 151.716 17.7601C151.716 18.6001 151.696 19.5801 151.656 20.7001C151.576 23.3001 151.136 25.4401 150.336 27.1201C149.536 28.7601 148.316 30.0201 146.676 30.9001L152.316 48.6001H142.776L138.216 32.4001H136.176V48.6001H127.176ZM136.176 24.4801H138.756C141.236 24.4801 142.536 23.3801 142.656 21.1801C142.856 18.0601 142.856 14.9401 142.656 11.8201C142.536 9.6201 141.236 8.5201 138.756 8.5201H136.176V24.4801ZM155.887 48.6001V0.600097H168.907L172.507 15.9001L175.807 40.6801H177.367L175.687 21.1801L174.967 0.600097H183.667V48.6001H169.987L166.387 32.8801L163.927 8.4601H162.247L163.807 30.1801L164.587 48.6001H155.887ZM-0.000195228 103.6L6.65981 55.6001H20.8198L27.4798 103.6H18.2398L17.2198 93.5801H10.2598L9.23981 103.6H-0.000195228ZM11.0998 85.6601H16.3798L15.2998 75.0401L14.5798 63.5201H12.8998L12.1798 75.0401L11.0998 85.6601ZM29.9107 103.6V55.6001H41.4907C45.9707 55.6001 49.1907 56.5201 51.1507 58.3601C53.1507 60.1601 54.2307 63.1401 54.3907 67.3001C54.4307 68.4201 54.4507 69.4001 54.4507 70.2401C54.4907 71.0801 54.4907 71.9201 54.4507 72.7601C54.4507 73.6001 54.4307 74.5801 54.3907 75.7001C54.3107 78.3001 53.8707 80.4401 53.0707 82.1201C52.2707 83.7601 51.0507 85.0201 49.4107 85.9001L55.0507 103.6H45.5107L40.9507 87.4001H38.9107V103.6H29.9107ZM38.9107 79.4801H41.4907C43.9707 79.4801 45.2707 78.3801 45.3907 76.1801C45.5907 73.0601 45.5907 69.9401 45.3907 66.8201C45.2707 64.6201 43.9707 63.5201 41.4907 63.5201H38.9107V79.4801ZM63.9898 103.6V63.5201H56.2498V55.6001H80.6698V63.5201H72.9898V103.6H63.9898ZM110.309 104.2C107.309 104.2 104.889 103.8 103.049 103C101.249 102.16 99.9293 100.86 99.0893 99.1001C98.2493 97.3401 97.7693 95.0201 97.6493 92.1401C97.6093 90.4601 97.5693 88.5601 97.5293 86.4401C97.4893 84.2801 97.4693 82.0601 97.4693 79.7801C97.4693 77.4601 97.4893 75.2401 97.5293 73.1201C97.5693 71.0001 97.6093 69.1401 97.6493 67.5401C97.7693 64.5001 98.2493 62.0601 99.0893 60.2201C99.9693 58.3801 101.309 57.0601 103.109 56.2601C104.949 55.4201 107.349 55.0001 110.309 55.0001C114.509 55.0001 117.569 55.9401 119.489 57.8201C121.409 59.6601 122.509 62.7201 122.789 67.0001C122.869 67.9201 122.909 69.0201 122.909 70.3001C122.909 71.5801 122.869 72.6801 122.789 73.6001H113.789C113.869 72.4801 113.909 71.1001 113.909 69.4601C113.909 67.8201 113.869 66.4401 113.789 65.3201C113.669 63.3201 112.509 62.3201 110.309 62.3201C107.989 62.3201 106.769 63.3201 106.649 65.3201C106.489 68.1201 106.369 71.2001 106.289 74.5601C106.249 77.9201 106.249 81.2801 106.289 84.6401C106.369 87.9601 106.489 91.0201 106.649 93.8201C106.769 95.8601 107.989 96.8801 110.309 96.8801C111.469 96.8801 112.389 96.6201 113.069 96.1001C113.749 95.5801 114.129 94.8201 114.209 93.8201C114.249 93.3401 114.269 92.7401 114.269 92.0201C114.309 91.2601 114.309 90.5001 114.269 89.7401C114.269 88.9801 114.249 88.3801 114.209 87.9401H110.909V80.1401H122.969C123.049 81.9801 123.069 83.9801 123.029 86.1401C123.029 88.3001 122.989 90.3001 122.909 92.1401C122.709 96.4601 121.629 99.5601 119.669 101.44C117.709 103.28 114.589 104.2 110.309 104.2ZM124.336 103.6L130.996 55.6001H145.156L151.816 103.6H142.576L141.556 93.5801H134.596L133.576 103.6H124.336ZM135.436 85.6601H140.716L139.636 75.0401L138.916 63.5201H137.236L136.516 75.0401L135.436 85.6601ZM154.247 103.6V55.6001H163.247V95.6801H175.067V103.6H154.247ZM178.094 103.6V55.6001H187.094V95.6801H198.914V103.6H178.094ZM201.942 103.6V55.6001H222.702V63.5201H210.942V75.2201H222.102V83.1401H210.942V95.6801H222.702V103.6H201.942ZM225.731 103.6V55.6001H237.311C241.791 55.6001 245.011 56.5201 246.971 58.3601C248.971 60.1601 250.051 63.1401 250.211 67.3001C250.251 68.4201 250.271 69.4001 250.271 70.2401C250.311 71.0801 250.311 71.9201 250.271 72.7601C250.271 73.6001 250.251 74.5801 250.211 75.7001C250.131 78.3001 249.691 80.4401 248.891 82.1201C248.091 83.7601 246.871 85.0201 245.231 85.9001L250.871 103.6H241.331L236.771 87.4001H234.731V103.6H225.731ZM234.731 79.4801H237.311C239.791 79.4801 241.091 78.3801 241.211 76.1801C241.411 73.0601 241.411 69.9401 241.211 66.8201C241.091 64.6201 239.791 63.5201 237.311 63.5201H234.731V79.4801ZM259.84 103.6V92.1401L259.18 89.4401L250.84 55.6001H260.02L262.6 67.2401L263.5 81.3401H265.18L266.08 67.2401L268.66 55.6001H277.84L269.5 89.3801L268.84 92.1401V103.6H259.84Z" fill="#151515"/>
</svg>
