<svg width="325" height="123" viewBox="0 0 325 123" fill="none" xmlns="http://www.w3.org/2000/svg">
<path d="M1.4001 56.7V0.700011H18.2701L22.8901 21.91L23.8001 47.46H25.6201L26.4601 21.91L31.1501 0.700011H47.9501V56.7H37.4501V39.48L39.4801 9.94001H37.5901L34.6501 40.18L30.3101 56.7H19.0401L14.7701 40.18L11.7601 9.94001H9.9401L11.9001 39.48V56.7H1.4001ZM67.7847 57.4C62.6514 57.4 58.918 56.3267 56.5847 54.18C54.298 51.9867 53.108 48.37 53.0147 43.33C52.9214 38.7567 52.8747 33.88 52.8747 28.7C52.8747 23.4733 52.9214 18.5733 53.0147 14C53.108 9.00668 54.298 5.43668 56.5847 3.29001C58.918 1.09668 62.6514 7.86781e-06 67.7847 7.86781e-06C72.918 7.86781e-06 76.6047 1.09668 78.8447 3.29001C81.0847 5.43668 82.298 9.00668 82.4847 14C82.6714 18.6667 82.7647 23.59 82.7647 28.77C82.7647 33.9033 82.6714 38.7567 82.4847 43.33C82.298 48.37 81.0847 51.9867 78.8447 54.18C76.6047 56.3267 72.918 57.4 67.7847 57.4ZM67.7847 48.86C70.4914 48.86 71.8914 47.67 71.9847 45.29C72.078 42.91 72.148 40.2967 72.1947 37.45C72.288 34.6033 72.3347 31.6867 72.3347 28.7C72.3347 25.6667 72.288 22.7267 72.1947 19.88C72.148 17.0333 72.078 14.42 71.9847 12.04C71.8914 9.70668 70.4914 8.54001 67.7847 8.54001C65.0314 8.54001 63.608 9.70668 63.5147 12.04C63.4214 14.42 63.3514 17.0333 63.3047 19.88C63.258 22.7267 63.2347 25.6667 63.2347 28.7C63.2347 31.6867 63.258 34.6033 63.3047 37.45C63.3514 40.2967 63.4214 42.91 63.5147 45.29C63.608 47.67 65.0314 48.86 67.7847 48.86ZM86.986 56.7V0.700011H101.196C106.469 0.700011 110.273 1.82001 112.606 4.06001C114.939 6.25334 116.153 9.91668 116.246 15.05C116.339 18.27 116.386 21.35 116.386 24.29C116.433 27.1833 116.433 30.1 116.386 33.04C116.386 35.9333 116.339 39.0133 116.246 42.28C116.153 47.4133 114.939 51.1 112.606 53.34C110.273 55.58 106.469 56.7 101.196 56.7H86.986ZM97.486 47.46H101.196C104.136 47.46 105.653 46.1533 105.746 43.54C106.026 33.6 106.026 23.6833 105.746 13.79C105.653 11.2233 104.136 9.94001 101.196 9.94001H97.486V47.46ZM120.619 56.7V0.700011H144.839V9.94001H131.119V23.59H144.139V32.83H131.119V47.46H144.839V56.7H120.619ZM148.373 56.7V0.700011H161.883C167.109 0.700011 170.866 1.77334 173.153 3.92001C175.486 6.02001 176.746 9.49668 176.933 14.35C176.979 15.6567 177.003 16.8 177.003 17.78C177.049 18.76 177.049 19.74 177.003 20.72C177.003 21.7 176.979 22.8433 176.933 24.15C176.839 27.1833 176.326 29.68 175.393 31.64C174.459 33.5533 173.036 35.0233 171.123 36.05L177.703 56.7H166.573L161.253 37.8H158.873V56.7H148.373ZM158.873 28.56H161.883C164.776 28.56 166.293 27.2767 166.433 24.71C166.666 21.07 166.666 17.43 166.433 13.79C166.293 11.2233 164.776 9.94001 161.883 9.94001H158.873V28.56ZM181.869 56.7V0.700011H197.059L201.259 18.55L205.109 47.46H206.929L204.969 24.71L204.129 0.700011H214.279V56.7H198.319L194.119 38.36L191.249 9.87001H189.289L191.109 35.21L192.019 56.7H181.869ZM9.77553e-05 121.7L7.7701 65.7H24.2901L32.0601 121.7H21.2801L20.0901 110.01H11.9701L10.7801 121.7H9.77553e-05ZM12.9501 100.77H19.1101L17.8501 88.38L17.0101 74.94H15.0501L14.2101 88.38L12.9501 100.77ZM34.8962 121.7V65.7H48.4062C53.6329 65.7 57.3895 66.7733 59.6762 68.92C62.0095 71.02 63.2695 74.4967 63.4562 79.35C63.5029 80.6567 63.5262 81.8 63.5262 82.78C63.5729 83.76 63.5729 84.74 63.5262 85.72C63.5262 86.7 63.5029 87.8433 63.4562 89.15C63.3629 92.1833 62.8495 94.68 61.9162 96.64C60.9829 98.5533 59.5595 100.023 57.6462 101.05L64.2262 121.7H53.0962L47.7762 102.8H45.3962V121.7H34.8962ZM45.3962 93.56H48.4062C51.2995 93.56 52.8162 92.2767 52.9562 89.71C53.1895 86.07 53.1895 82.43 52.9562 78.79C52.8162 76.2233 51.2995 74.94 48.4062 74.94H45.3962V93.56ZM74.6551 121.7V74.94H65.6251V65.7H94.1151V74.94H85.1551V121.7H74.6551ZM128.695 122.4C125.195 122.4 122.371 121.933 120.225 121C118.125 120.02 116.585 118.503 115.605 116.45C114.625 114.397 114.065 111.69 113.925 108.33C113.878 106.37 113.831 104.153 113.785 101.68C113.738 99.16 113.715 96.57 113.715 93.91C113.715 91.2033 113.738 88.6133 113.785 86.14C113.831 83.6667 113.878 81.4967 113.925 79.63C114.065 76.0833 114.625 73.2367 115.605 71.09C116.631 68.9433 118.195 67.4033 120.295 66.47C122.441 65.49 125.241 65 128.695 65C133.595 65 137.165 66.0967 139.405 68.29C141.645 70.4367 142.928 74.0067 143.255 79C143.348 80.0733 143.395 81.3567 143.395 82.85C143.395 84.3433 143.348 85.6267 143.255 86.7H132.755C132.848 85.3933 132.895 83.7833 132.895 81.87C132.895 79.9567 132.848 78.3467 132.755 77.04C132.615 74.7067 131.261 73.54 128.695 73.54C125.988 73.54 124.565 74.7067 124.425 77.04C124.238 80.3067 124.098 83.9 124.005 87.82C123.958 91.74 123.958 95.66 124.005 99.58C124.098 103.453 124.238 107.023 124.425 110.29C124.565 112.67 125.988 113.86 128.695 113.86C130.048 113.86 131.121 113.557 131.915 112.95C132.708 112.343 133.151 111.457 133.245 110.29C133.291 109.73 133.315 109.03 133.315 108.19C133.361 107.303 133.361 106.417 133.315 105.53C133.315 104.643 133.291 103.943 133.245 103.43H129.395V94.33H143.465C143.558 96.4767 143.581 98.81 143.535 101.33C143.535 103.85 143.488 106.183 143.395 108.33C143.161 113.37 141.901 116.987 139.615 119.18C137.328 121.327 133.688 122.4 128.695 122.4ZM145.059 121.7L152.829 65.7H169.349L177.119 121.7H166.339L165.149 110.01H157.029L155.839 121.7H145.059ZM158.009 100.77H164.169L162.909 88.38L162.069 74.94H160.109L159.269 88.38L158.009 100.77ZM179.955 121.7V65.7H190.455V112.46H204.245V121.7H179.955ZM207.777 121.7V65.7H218.277V112.46H232.067V121.7H207.777ZM235.599 121.7V65.7H259.819V74.94H246.099V88.59H259.119V97.83H246.099V112.46H259.819V121.7H235.599ZM263.353 121.7V65.7H276.863C282.09 65.7 285.847 66.7733 288.133 68.92C290.467 71.02 291.727 74.4967 291.913 79.35C291.96 80.6567 291.983 81.8 291.983 82.78C292.03 83.76 292.03 84.74 291.983 85.72C291.983 86.7 291.96 87.8433 291.913 89.15C291.82 92.1833 291.307 94.68 290.373 96.64C289.44 98.5533 288.017 100.023 286.103 101.05L292.683 121.7H281.553L276.233 102.8H273.853V121.7H263.353ZM273.853 93.56H276.863C279.757 93.56 281.273 92.2767 281.413 89.71C281.647 86.07 281.647 82.43 281.413 78.79C281.273 76.2233 279.757 74.94 276.863 74.94H273.853V93.56ZM303.147 121.7V108.33L302.377 105.18L292.647 65.7H303.357L306.367 79.28L307.417 95.73H309.377L310.427 79.28L313.437 65.7H324.147L314.417 105.11L313.647 108.33V121.7H303.147Z" fill="#151515"/>
</svg>
